<svg id="Layer_1" data-name="Layer 1" xmlns="http://www.w3.org/2000/svg" viewBox="0 0 800 800"><defs><style>.cls-1{fill:#111;}.cls-2{fill:#efefef;}</style></defs><title>logo</title><rect class="cls-1" x="-10" y="-10" width="820" height="820"/><path class="cls-2" d="M400.17,690.87c69.33,0,131.73-23.77,179.6-61.41l-38.3-47.87c-38.29,26.41-86.83,43.25-141.3,43.25C276.68,624.84,180,522.49,180,400s96.73-224.84,220.22-224.84c123.15,0,219.88,102.35,219.88,224.84,0,47.21-12.54,94.43-42.26,135.7h74.29c23.11-39,35.66-84.19,35.66-135.7,0-162.77-124.8-290.87-287.57-290.87S112.26,237.23,112.26,400,237.39,690.87,400.17,690.87Z"/><path class="cls-2" d="M555.34,535.7l-27.4-81.88V268.6h-73.3l1.32,13C435.58,269.25,412.57,262,389.27,262c-69.66,0-131.08,60.09-131.08,140S319.61,542.3,389.27,542.3c28.48,0,56.53-10.9,79.87-28.7l7.95,22.1Zm-157.82-68c-36.64,0-63.39-28.72-63.39-65.7s26.75-65.7,63.39-65.7,63.4,28.72,63.4,65.7S434.17,467.68,397.52,467.68Z"/></svg>