<?xml version="1.0" encoding="UTF-8" standalone="no"?>
<svg width="79px" height="72px" viewBox="0 0 79 72" version="1.1" xmlns="http://www.w3.org/2000/svg" xmlns:xlink="http://www.w3.org/1999/xlink" xmlns:sketch="http://www.bohemiancoding.com/sketch/ns">
    <!-- Generator: Sketch 3.3.3 (12081) - http://www.bohemiancoding.com/sketch -->
    <title>Imported-Layers</title>
    <desc>Created with Sketch.</desc>
    <defs></defs>
    <g id="Page-1" stroke="none" stroke-width="1" fill="none" fill-rule="evenodd" sketch:type="MSPage">
        <g id="Artboard-1" sketch:type="MSLayerGroup" transform="translate(0.000000, -1.000000)" fill="#171799">
            <g id="Page-1" sketch:type="MSShapeGroup">
                <g id="Artboard-1">
                    <path class="logo-path" d="M37.9879722,0 C21.8031838,0 7.04430021,13.0242258 2.17518262,29.5774244 C-6.0574858,57.5651321 10.5442288,72 27.4327695,72 C32.8279155,72 40.5936525,69.728638 47.5891802,63.7810833 C56.6764824,70.7096736 70.6212126,69.9509745 70.6212126,69.9509745 L71.7648372,65.333134 C64.8686704,65.1932321 55.1577108,61.1352146 60.9903478,42.7185221 C64.7649801,30.7097692 63.2278083,20.0681813 58.6658653,12.4095181 C64.2863592,7.42814779 68.4421997,9.14399139 68.4421997,11.5294272 C68.4421997,18.8189645 79,18.6069592 79,11.290733 C79,4.4407031 67.7613934,0.075116585 57.0841002,10.0359201 C52.4141374,3.73968672 45.4945916,0 37.9879722,0 Z M41.995096,35.3667823 C35.7095983,55.7812747 31.2325126,65.5137152 24.1956387,65.5137152 C18.0032242,65.5137152 15.1317155,55.236518 22.1263773,32.3093866 C27.2918459,15.3775918 32.4990936,6.56140141 39.0852717,6.56140141 C46.2914271,6.56140141 47.417301,17.7565706 41.995096,35.3667823 L41.995096,35.3667823 Z"></path>
                </g>
            </g>
        </g>
    </g>
</svg>