<?xml version="1.0" encoding="UTF-8" standalone="no"?>
<svg width="79px" height="72px" viewBox="0 0 79 72" version="1.1" xmlns="http://www.w3.org/2000/svg" xmlns:xlink="http://www.w3.org/1999/xlink" xmlns:sketch="http://www.bohemiancoding.com/sketch/ns">
    <!-- Generator: Sketch 3.3.3 (12081) - http://www.bohemiancoding.com/sketch -->
    <title>Imported-Layers</title>
    <desc>Created with Sketch.</desc>
    <defs></defs>
    <g id="Page-1" stroke="none" stroke-width="1" fill="none" fill-rule="evenodd" sketch:type="MSPage">
        <g id="Artboard-1" sketch:type="MSLayerGroup" transform="translate(0.000000, -1.000000)" fill="#171799">
            <g id="Page-1" sketch:type="MSShapeGroup">
                <g id="Artboard-1">
                    <path d="M0.1001419,44.0221042 C0.1001419,63.1808197 12.2462058,73 27.4327695,73 C32.8279155,73 40.5936525,70.728638 47.5891802,64.7810833 C56.6764824,71.7096736 70.6212126,70.9509745 70.6212126,70.9509745 L71.7648372,66.333134 C55.0000008,59 63.1179436,49 63.1179434,30.6940862 C63.1179433,24.043723 61.4920923,18.1542335 58.6658653,13.4095181 C62.7100428,9.82521641 65.8852686,9.41370814 67.5209086,10.8133528 C69.2809416,12.3194425 67.5658228,13.5225024 69.8078706,16.3180027 C72.2616945,19.3775563 79,18.2590042 79,12.290733 C79,5.4407031 67.7613934,1.07511658 57.0841002,11.0359201 C52.4141374,4.73968672 45.4945916,1 37.9879722,1 C17.8031838,1 0.1001419,20.5 0.1001419,44.0221042 Z M26.0956387,65.9137152 C21.1775496,65.9137156 16.4999999,61.3000001 16.5,51.2 C16.5000001,29.9000017 27.0268766,8.55977014 38.4852717,8.56140141 C43.5529747,8.56212287 46.2888791,13.6090983 46.2963962,22.7247144 C46.3153984,45.7676096 37.0913249,65.9137143 26.0956387,65.9137152 Z" id="Imported-Layers"></path>
                </g>
            </g>
        </g>
    </g>
</svg>