<svg id="Layer_1" data-name="Layer 1" xmlns="http://www.w3.org/2000/svg" viewBox="0 0 800 800"><defs><style>.cls-2{fill:#efefef}</style></defs><path fill="#111" d="M-10-10h820v820H-10z"/><path class="cls-2" d="M400.17 690.87c69.33 0 131.73-23.77 179.6-61.41l-38.3-47.87c-38.29 26.41-86.83 43.25-141.3 43.25C276.68 624.84 180 522.49 180 400s96.73-224.84 220.22-224.84c123.15 0 219.88 102.35 219.88 224.84 0 47.21-12.54 94.43-42.26 135.7h74.29c23.11-39 35.66-84.19 35.66-135.7 0-162.77-124.8-290.87-287.57-290.87S112.26 237.23 112.26 400s125.13 290.87 287.91 290.87z"/><path class="cls-2" d="M555.34 535.7l-27.4-81.88V268.6h-73.3l1.32 13c-20.38-12.35-43.39-19.6-66.69-19.6-69.66 0-131.08 60.09-131.08 140s61.42 140.3 131.08 140.3c28.48 0 56.53-10.9 79.87-28.7l7.95 22.1zm-157.82-68c-36.64 0-63.39-28.72-63.39-65.7s26.75-65.7 63.39-65.7 63.4 28.72 63.4 65.7-26.75 65.68-63.4 65.68z"/></svg>